<?xml version="1.0" standalone="no"?>
<!DOCTYPE svg PUBLIC "-//W3C//DTD SVG 20010904//EN"
 "http://www.w3.org/TR/2001/REC-SVG-20010904/DTD/svg10.dtd">
<svg version="1.0" xmlns="http://www.w3.org/2000/svg"
 width="300.000000pt" height="291.000000pt" viewBox="0 0 300.000000 291.000000"
 preserveAspectRatio="xMidYMid meet">
<metadata>
Created by potrace 1.10, written by Peter Selinger 2001-2011
</metadata>
<g transform="translate(0.000000,291.000000) scale(0.100000,-0.100000)"
fill="#000000" stroke="none">
<path d="M1455 2772 c-71 -34 -105 -87 -105 -163 0 -56 22 -102 64 -134 119
-91 286 -7 286 144 0 41 -40 111 -79 137 -51 33 -115 40 -166 16z m149 -47
c83 -61 72 -203 -19 -241 -67 -28 -140 -10 -180 44 -27 37 -27 127 0 164 50
67 135 81 199 33z"/>
<path d="M1155 2551 c-104 -30 -205 -81 -211 -108 -8 -29 11 -53 41 -53 12 0
51 13 86 29 35 16 90 36 122 45 69 20 93 52 62 86 -21 24 -23 24 -100 1z m46
-35 c-7 -8 -24 -17 -39 -21 -15 -3 -53 -18 -84 -32 -61 -27 -100 -28 -46 -1
40 19 159 67 172 68 5 0 3 -6 -3 -14z"/>
<path d="M1789 2539 c-17 -32 3 -66 43 -74 61 -13 184 -65 252 -106 72 -43
109 -46 121 -10 9 31 -4 49 -64 85 -83 50 -127 71 -215 100 -95 32 -122 33
-137 5z m117 -38 c71 -23 126 -46 137 -58 5 -4 12 -8 15 -8 13 -1 91 -45 97
-55 12 -20 -50 -1 -65 20 -3 4 -29 17 -57 30 -29 13 -53 26 -53 30 0 3 -8 6
-17 7 -46 5 -81 16 -103 34 -31 23 -26 23 46 0z"/>
<path d="M592 2508 c-8 -8 -12 -53 -12 -138 0 -163 -3 -160 148 -160 152 0
152 0 152 155 0 155 0 155 -158 155 -78 0 -122 -4 -130 -12z m246 -35 c14 -20
15 -172 1 -210 -8 -22 -14 -23 -106 -23 -54 0 -105 4 -113 10 -11 6 -14 31
-15 97 0 139 -1 137 81 143 102 7 137 4 152 -17z"/>
<path d="M2276 2474 c-12 -12 -16 -36 -16 -100 0 -123 1 -124 113 -124 59 0
97 4 105 12 8 8 12 47 12 110 0 117 -1 118 -119 118 -59 0 -84 -4 -95 -16z
m173 -23 c17 -11 23 -121 7 -153 -11 -21 -18 -23 -75 -21 -92 3 -91 2 -91 82
0 100 1 101 79 101 36 0 72 -4 80 -9z"/>
<path d="M2037 2072 c-155 -155 -173 -182 -145 -210 29 -29 55 -11 206 141
114 115 152 160 152 178 0 28 -17 49 -40 49 -8 0 -86 -71 -173 -158z m163 100
c0 -4 -16 -25 -35 -45 -19 -20 -35 -34 -35 -30 0 4 -8 -4 -17 -17 -21 -28
-172 -180 -179 -180 -14 0 26 45 121 140 58 57 105 108 105 112 0 4 7 8 15 8
8 0 15 5 15 10 0 6 2 10 5 10 3 0 5 -4 5 -8z"/>
<path d="M845 2146 c-22 -33 -18 -40 123 -178 76 -76 126 -118 140 -118 25 0
52 25 52 48 0 9 -58 74 -128 144 -135 136 -158 148 -187 104z m167 -137 c96
-96 107 -109 89 -109 -8 0 -153 140 -205 199 -19 21 -19 22 -1 15 10 -4 63
-51 117 -105z"/>
<path d="M2433 2149 c-35 -13 -29 -53 19 -128 23 -36 60 -109 83 -161 33 -75
46 -96 64 -98 29 -5 51 14 51 43 0 58 -137 322 -178 344 -10 5 -27 5 -39 0z
m66 -98 c40 -62 86 -153 82 -165 -1 -5 6 -18 16 -29 13 -14 14 -19 4 -15 -15
4 -103 168 -92 168 3 0 1 4 -4 8 -23 16 -56 82 -41 82 2 0 18 -22 35 -49z"/>
<path d="M542 2110 c-53 -58 -179 -344 -167 -381 8 -24 50 -35 70 -19 7 6 24
42 36 78 25 78 65 160 114 237 19 30 35 60 35 68 0 38 -58 50 -88 17z m28 -49
c0 -5 -7 -16 -15 -25 -9 -8 -15 -19 -15 -23 1 -4 -4 -9 -10 -11 -7 -3 -11 -1
-8 4 20 44 33 64 40 64 4 0 8 -4 8 -9z m-60 -101 c-6 -4 -11 -10 -10 -14 0 -3
-4 -14 -9 -24 -18 -29 -12 6 6 41 10 20 18 27 21 18 2 -7 -1 -17 -8 -21z m-39
-97 c-6 -10 -18 -36 -25 -58 -10 -28 -15 -33 -15 -18 -1 23 17 70 34 89 15 17
18 9 6 -13z"/>
<path d="M1415 2016 c-56 -26 -119 -90 -142 -145 -36 -84 -10 -216 55 -284
122 -130 341 -102 427 54 26 47 30 64 30 129 0 62 -5 84 -27 126 -67 128 -216
180 -343 120z m156 -20 c31 -7 63 -18 70 -25 95 -80 104 -98 104 -201 0 -78
-2 -88 -30 -127 -41 -57 -126 -103 -191 -103 -51 0 -115 24 -153 56 -64 54
-94 158 -70 243 17 60 98 144 154 158 54 15 52 15 116 -1z"/>
<path d="M2530 1661 c-5 -11 -10 -71 -10 -134 0 -149 -2 -147 152 -147 150 0
148 -2 148 149 0 62 -5 121 -10 132 -10 17 -22 19 -140 19 -118 0 -130 -2
-140 -19z m247 -12 c15 -13 19 -205 4 -228 -9 -14 -154 -20 -203 -8 l-28 7 0
106 c0 70 4 109 13 119 15 17 194 20 214 4z"/>
<path d="M310 1639 c-61 -25 -100 -85 -100 -156 0 -90 63 -153 153 -153 85 0
150 54 163 135 17 116 -108 217 -216 174z m85 -29 c4 -6 10 -8 16 -5 12 8 79
-60 80 -82 8 -101 -38 -163 -121 -163 -101 0 -165 112 -110 194 31 49 118 84
135 56z"/>
<path d="M616 1538 c-21 -29 -20 -41 2 -61 16 -15 47 -17 229 -17 191 0 211 2
226 18 21 23 22 46 1 66 -13 14 -48 16 -229 16 -210 0 -214 0 -229 -22z m88
-19 c-4 -7 0 -9 14 -5 12 4 49 6 84 5 35 0 78 -1 97 -1 23 1 31 -2 23 -10 -6
-6 -47 -9 -101 -6 -50 1 -92 0 -94 -3 -1 -3 -18 -1 -37 4 -34 10 -34 10 -10
17 14 5 26 8 28 9 2 1 0 -4 -4 -10z m320 -11 c-7 -12 -84 -10 -84 2 0 6 20 9
45 8 24 0 42 -5 39 -10z"/>
<path d="M1956 1544 c-22 -22 -20 -50 6 -68 19 -13 57 -16 223 -16 214 0 247
7 253 48 7 50 -4 52 -244 52 -189 0 -225 -2 -238 -16z m264 -34 c0 -9 -207 -7
-216 3 -4 4 42 7 104 6 62 -1 112 -5 112 -9z m150 0 c0 -9 -84 -10 -115 -1
-23 6 -14 8 43 7 39 0 72 -3 72 -6z"/>
<path d="M1365 1414 c-173 -37 -311 -143 -384 -292 -21 -45 -42 -104 -46 -130
-6 -44 -14 -56 -86 -128 -87 -87 -98 -116 -52 -137 26 -11 30 -8 172 141 80
84 153 152 161 152 28 0 40 -23 40 -72 0 -98 42 -112 345 -111 315 0 355 11
355 96 0 82 48 111 98 59 175 -183 236 -242 247 -242 18 0 45 28 45 47 0 8
-31 47 -68 87 -54 56 -70 81 -80 121 -38 152 -154 294 -295 361 -128 60 -304
79 -452 48z m230 -25 c34 -1 91 -13 130 -26 39 -14 78 -27 88 -30 9 -3 17 -9
17 -14 0 -5 5 -9 11 -9 13 0 85 -55 112 -85 49 -54 100 -147 124 -224 14 -48
31 -89 37 -93 6 -4 7 -8 2 -8 -5 0 -32 24 -59 53 -98 103 -133 116 -186 71
-25 -21 -31 -33 -31 -66 0 -51 -17 -67 -82 -78 -82 -13 -439 -10 -487 4 -53
15 -62 25 -65 77 -3 32 -10 49 -30 66 -45 39 -67 31 -158 -57 -45 -44 -84 -77
-87 -75 -2 3 3 11 11 18 9 6 21 37 28 67 25 123 89 224 192 305 31 25 59 45
63 45 3 0 27 10 53 22 45 20 211 49 242 42 8 -2 42 -4 75 -5z"/>
<path d="M2618 1293 c-8 -10 -22 -54 -32 -98 -22 -99 -81 -242 -131 -321 -51
-79 -48 -123 7 -124 46 0 155 210 208 400 26 95 26 136 1 150 -27 14 -36 13
-53 -7z m-2 -188 c-4 -19 -12 -35 -18 -35 -6 0 -7 7 -3 18 4 9 10 27 13 40 8
37 15 16 8 -23z m-40 -113 c-14 -22 -22 -42 -19 -45 3 -4 -2 -13 -11 -22 -9
-9 -16 -22 -16 -29 0 -14 -33 -56 -44 -56 -8 0 44 92 57 101 5 3 8 8 7 10 -1
4 10 35 32 87 8 20 12 23 15 10 2 -9 -7 -34 -21 -56z"/>
<path d="M380 1250 c-23 -23 -21 -42 17 -165 32 -100 70 -185 117 -259 31 -49
40 -57 63 -54 53 6 51 27 -15 159 -35 69 -75 168 -90 223 -22 80 -32 101 -50
107 -17 6 -28 3 -42 -11z m70 -150 c7 -22 10 -43 7 -47 -9 -8 -17 0 -21 23 -2
11 -7 32 -12 48 -11 44 10 24 26 -24z m30 -85 c0 -8 9 -31 21 -51 11 -20 19
-43 17 -52 -3 -17 -43 57 -54 102 -5 21 -4 27 5 22 6 -4 11 -14 11 -21z"/>
<path d="M1491 716 c-8 -9 -11 -51 -9 -122 l3 -109 30 -3 c44 -5 55 18 55 121
0 48 -5 97 -10 108 -12 22 -52 25 -69 5z"/>
<path d="M2320 722 c-37 -6 -90 -50 -106 -88 -19 -45 -18 -83 5 -124 75 -143
294 -81 278 79 -9 85 -92 148 -177 133z m99 -58 c77 -65 47 -185 -51 -201 -84
-13 -153 66 -127 146 25 77 118 106 178 55z"/>
<path d="M546 674 c-25 -24 -23 -185 2 -207 26 -23 183 -24 202 -2 16 19 14
193 -2 212 -16 20 -182 18 -202 -3z m185 -25 c12 -18 9 -141 -4 -156 -13 -17
-139 -17 -155 -1 -7 7 -12 40 -12 77 0 89 12 101 97 97 41 -2 69 -9 74 -17z"/>
<path d="M852 548 c-24 -24 -13 -57 31 -89 47 -34 159 -93 222 -116 132 -49
179 -47 173 5 -3 30 -14 36 -140 82 -48 18 -121 54 -163 81 -78 51 -102 58
-123 37z m127 -83 c22 -14 43 -25 45 -25 3 0 27 -13 53 -30 26 -16 43 -30 38
-30 -19 0 -180 84 -204 107 l-26 24 27 -10 c15 -6 45 -22 67 -36z"/>
<path d="M2025 484 c-33 -19 -104 -48 -158 -66 -77 -24 -101 -37 -110 -55 -8
-18 -7 -27 8 -43 10 -11 27 -20 37 -20 53 0 286 97 331 137 20 19 22 54 5 71
-19 19 -48 12 -113 -24z m69 -25 c-12 -20 -189 -98 -238 -105 -32 -4 -47 -3
-43 3 6 10 27 16 82 25 11 2 22 5 25 8 8 8 164 80 173 80 5 0 5 -5 1 -11z"/>
<path d="M1410 380 c-17 -17 -20 -33 -20 -125 0 -141 3 -144 138 -142 66 2
105 7 116 16 13 11 16 34 16 127 0 142 -2 144 -137 144 -80 0 -96 -3 -113 -20z
m215 -22 c16 -14 13 -182 -4 -201 -10 -13 -31 -17 -95 -17 -50 0 -87 5 -94 12
-17 17 -16 192 1 206 24 20 171 20 192 0z"/>
</g>
</svg>
